<?xml version="1.0" encoding="UTF-8"?>
<svg id="Layer_1" data-name="Layer 1" xmlns="http://www.w3.org/2000/svg" viewBox="0 0 421.14 91.71">
  <defs>
    <style>
      .cls-1 {
        fill: #0008be;
      }
    </style>
  </defs>
  <g>
    <path class="cls-1" d="m0,90.26V1.45c0-.45.22-.67.67-.67h12.02c7.01.22,11.13,4.34,11.13,11.24v52.42c0,7.01-4.12,11.13-10.91,11.13H2.34c-.45,0-.67.22-.67.67v14.02c0,.45-.22.67-.67.67h-.33c-.45,0-.67-.22-.67-.67Zm18.92-45.63c2,0,3.23-1.11,3.23-3.45v-5.79c0-2.34-1.22-3.67-3.23-3.67H2.34c-.45,0-.67.22-.67.67v11.57c0,.45.22.67.67.67,0,0,16.58,0,16.58,0Z"/>
    <path class="cls-1" d="m29.38,90.26V1.45c0-.45.22-.67.67-.67h14.25c7.01,0,11.13,4.12,11.13,11.13v37.06c0,7.01-4.12,11.13-10.91,11.13h-7.01c-.45,0-.67.22-.67.67v2.67c0,2,1.34,3.12,3.56,3.12h14.36c.45,0,.67.22.67.67v23.04c0,.45-.22.67-.67.67h-8.46c-7.01,0-11.13-4.12-11.13-11.13v-19.03c0-.45-.22-.67-.67-.67h-2.78c-.45,0-.67.22-.67.67v29.49c0,.45-.22.67-.67.67h-.33c-.45,0-.67-.22-.67-.67h0Zm21.93-54.65c1.56,0,2.45-1.34,2.45-3.45v-3.9c0-1.78-.89-2.89-2.45-2.89h-19.59c-.45,0-.67.22-.67.67v8.9c0,.45.22.67.67.67h19.59Z"/>
    <path class="cls-1" d="m61.66,90.26V1.45c0-.45.22-.67.67-.67h22.93c.45,0,.67.22.67.67v23.26c0,.45-.22.67-.67.67h-21.26c-.45,0-.67.22-.67.67v8.9c0,.45.22.67.67.67h21.04c.45,0,.67.22.67.67v23.15c0,.44-.22.67-.67.67h-21.04c-.45,0-.67.22-.67.67v5.12c0,.45.22.67.67.67h21.26c.45,0,.67.22.67.67v23.04c0,.45-.22.67-.67.67h-22.93c-.45,0-.67-.22-.67-.67v-.02Z"/>
    <path class="cls-1" d="m91.04,90.26v-23.04c0-.44.22-.67.67-.67h20.81c.89,0,1.67-.67,1.67-1.89v-2.67c0-1.22-.56-1.89-1.67-1.89h-15.02c-4.01,0-6.46-2.34-6.46-6.34V11.91c0-7.01,4.12-11.13,11.13-11.13h12.91c.45,0,.67.22.67.67v23.26c0,.45-.22.67-.67.67h-18.81c-2.23,0-3.56,1.22-3.56,3.34v3.56c0,2.11,1.34,3.34,3.56,3.34h13.13c4.01,0,6.34,2.34,6.34,6.34v37.84c0,7.01-4.12,11.13-11.13,11.13h-12.91c-.45,0-.67-.22-.67-.67h0Z"/>
    <path class="cls-1" d="m121.53,90.26v-23.04c0-.44.22-.67.67-.67h20.81c.89,0,1.67-.67,1.67-1.89v-2.67c0-1.22-.56-1.89-1.67-1.89h-15.02c-4.01,0-6.46-2.34-6.46-6.34V11.91c0-7.01,4.12-11.13,11.13-11.13h12.91c.45,0,.67.22.67.67v23.26c0,.45-.22.67-.67.67h-18.81c-2.23,0-3.56,1.22-3.56,3.34v3.56c0,2.11,1.34,3.34,3.56,3.34h13.13c4.01,0,6.34,2.34,6.34,6.34v37.84c0,7.01-4.12,11.13-11.13,11.13h-12.91c-.45,0-.67-.22-.67-.67h.01Z"/>
    <path class="cls-1" d="m173.39,90.26v-51.53c0-.44-.22-.67-.67-.67h-10.13c-.45,0-.67-.22-.67-.67V1.45c0-.45.22-.67.67-.67h23.26c.45,0,.67.22.67.67v35.95c0,.45-.22.67-.67.67h-10.13c-.45,0-.67.22-.67.67v51.53c0,.45-.22.67-.78.67h-.22c-.45,0-.67-.22-.67-.67h.01Z"/>
    <path class="cls-1" d="m191.09,78.91V12.8c0-8.01,4.23-12.8,11.46-12.8s11.58,4.79,11.58,12.8v66.11c0,8.01-4.23,12.8-11.46,12.8s-11.58-4.79-11.58-12.8Zm18.03-18.81c2.12,0,3.34-1.22,3.34-3.34v-21.7c0-2.11-1.22-3.34-3.34-3.34h-13.02c-2.12,0-3.34,1.22-3.34,3.34v21.7c0,2.11,1.22,3.34,3.34,3.34h13.02Z"/>
    <path class="cls-1" d="m231.49,90.26V1.45c0-.45.22-.67.67-.67h12.02c7.01.22,11.13,4.34,11.13,11.24v52.42c0,7.01-4.12,11.13-10.91,11.13h-10.57c-.44,0-.67.22-.67.67v14.02c0,.45-.22.67-.67.67h-.33c-.45,0-.67-.22-.67-.67h0Zm18.92-45.63c2,0,3.23-1.11,3.23-3.45v-5.79c0-2.34-1.22-3.67-3.23-3.67h-16.58c-.44,0-.67.22-.67.67v11.57c0,.45.22.67.67.67,0,0,16.58,0,16.58,0Z"/>
    <path class="cls-1" d="m260.87,90.26V1.45c0-.45.22-.67.67-.67h.33c.45,0,.67.22.67.67v51.64c0,.45.22.67.67.67h15.47c.45,0,.67.22.67.67v35.84c0,.45-.22.67-.67.67h-17.14c-.45,0-.67-.22-.67-.67h0Z"/>
    <path class="cls-1" d="m281.35,90.26L291.36,1.34c.22-.44.45-.56.78-.56h11.35c.45,0,.78.22.78.67l10.02,88.82c0,.45-.22.67-.67.67h-.33c-.45,0-.78-.22-.78-.67l-1.56-14.13c0-.44-.45-.56-.78-.56h-11.24c-.33,0-.67.11-.67.44l-1.56,14.47c0,.33-.33.45-.67.45h-14.13c-.33,0-.67-.33-.56-.67h.01Zm26.04-39.18c.33,0,.56-.33.56-.67l-3.12-26.93c-.11-.89-.78-.89-.89,0l-3.01,26.93c0,.44.33.67.67.67h5.79Z"/>
    <path class="cls-1" d="m315.96,90.26l5.12-41.96c.11-.56.11-.78,0-1.34l-8.35-45.08c-.11-.78.22-1.11.56-1.11h.33c.45,0,.67.22.78.67l7.23,39.51c.11.45.45.56.56,0l4.45-39.4c.11-.67.33-.78.78-.78h15.25c.33,0,.56.33.56.67l-10.68,88.7c-.11.67-.33.78-.78.78h-15.25c-.33,0-.56-.33-.56-.67h0Z"/>
  </g>
  <polygon class="cls-1" points="348.6 .88 336.95 90.93 421.14 45.9 348.6 .88"/>
</svg>