<?xml version="1.0" encoding="utf-8"?>
<!-- Generator: Adobe Illustrator 27.4.0, SVG Export Plug-In . SVG Version: 6.00 Build 0)  -->
<svg version="1.1" id="Layer_1" xmlns="http://www.w3.org/2000/svg" xmlns:xlink="http://www.w3.org/1999/xlink" x="0px" y="0px"
	 viewBox="0 0 457 316.8" style="enable-background:new 0 0 457 316.8;" xml:space="preserve">
<style type="text/css">
	.st0{fill:#0008BE;}
</style>
<path class="st0" d="M0,315.9V0.9C0,0.5,0.8,0,1.6,0h0.8c0.8,0,1.6,0.5,1.6,0.9v254.2c0,0.3,0.5,0.5,0.8,0L26.1,13.2
	c0.3-0.9,2.6-0.9,2.9,0l23.7,281.6c0,0.5,0.8,0.5,0.8,0V0.9C53.4,0.5,54.2,0,55,0h31.8c0.8,0,1.6,0.5,1.6,0.9v315
	c0,0.5-0.8,0.9-1.6,0.9H56.5c-0.8,0-1.8-0.5-1.8-0.9l-10.9-41.6c0-0.5-0.5-0.5-0.8,0l-18,41.6c-0.3,0.5-1,0.9-1.8,0.9H1.6
	C0.8,316.8,0,316.4,0,315.9z"/>
<path class="st0" d="M96.9,315.9L120.4,0.8c0.5-0.6,1-0.8,1.8-0.8h26.6c1,0,1.8,0.3,1.8,0.9l23.4,315c0,0.6-0.5,0.9-1.6,0.9h-0.8
	c-1,0-1.8-0.3-1.8-0.9l-3.6-20c0-0.6-1-0.8-1.8-0.8h-26.3c-0.8,0-1.6,0.2-1.6,0.6l-3.6,20.4c0,0.5-0.8,0.6-1.6,0.6H98.2
	C97.5,316.8,96.7,316.4,96.9,315.9L96.9,315.9z M157.9,260.6c0.8,0,1.3-0.5,1.3-0.9l-7.3-227.6c-0.3-1.3-1.8-1.3-2.1,0l-7,227.6
	c0,0.6,0.8,0.9,1.6,0.9H157.9L157.9,260.6z"/>
<path class="st0" d="M182.7,315.9V0.9c0-0.6,0.5-0.9,1.6-0.9h0.8c1.3,0,1.8,0.2,2.9,0.6l43.3,18.9c0.8,0.3,1.3,0.2,1.3-0.3V0.9
	c0-0.6,0.5-0.9,1.6-0.9h0.8c1,0,1.6,0.3,1.6,0.9v315c0,0.6-0.5,0.9-2.1,0.9c-1.3,0-1.8-0.3-1.8-0.9v-45.2c0-0.6-0.3-1.1-1.3-1.6
	l-43.5-18.9c-0.8-0.3-1-0.2-1,0.5v65.2c0,0.6-0.5,0.9-1.6,0.9h-0.8C183.2,316.8,182.7,316.5,182.7,315.9L182.7,315.9z"/>
<path class="st0" d="M252,315.9V0.9c0-0.6,0.5-0.9,1.6-0.9h0.8c1,0,1.6,0.3,1.6,0.9v248.2c0,0.9,1,0.9,1.3,0l17.5-248
	c0.3-0.9,0.8-1.1,1.8-1.1h35.7c0.8,0,1.6,0.5,1.3,0.9l-16.2,243.8c-0.5,1.6-0.5,3.1,0,4.7l19,66.3c0.3,0.6-0.5,1.1-1.3,1.1h-1
	c-1,0-1.6-0.3-1.8-0.9l-16.7-58.6c-0.3-0.8-1-0.8-1.3,0l-15.1,58.4c-0.3,0.9-0.8,1.1-1.8,1.1h-23.7C252.5,316.8,252,316.5,252,315.9
	L252,315.9z"/>
<path class="st0" d="M318.2,315.9L341.6,0.8c0.5-0.6,1-0.8,1.8-0.8H370c1,0,1.8,0.3,1.8,0.9l23.5,315c0,0.6-0.5,0.9-1.6,0.9h-0.8
	c-1,0-1.8-0.3-1.8-0.9l-3.6-20c0-0.6-1-0.8-1.8-0.8h-26.3c-0.8,0-1.6,0.2-1.6,0.6l-3.6,20.4c0,0.5-0.8,0.6-1.6,0.6h-33.1
	C318.7,316.8,317.9,316.4,318.2,315.9L318.2,315.9z M379.1,260.6c0.8,0,1.3-0.5,1.3-0.9l-7.3-227.6c-0.3-1.3-1.8-1.3-2.1,0l-7,227.6
	c0,0.6,0.8,0.9,1.6,0.9H379.1L379.1,260.6z"/>
<path class="st0" d="M402.3,315.9v-41.6c0-0.8,0-1.4,0.8-2l48.2-227.5c0.5-0.3,0.3-1.1-0.8-1.1h-45.9c-1,0-1.6-0.3-1.6-0.9V0.9
	c0-0.6,0.5-0.9,1.6-0.9h50.8c1,0,1.6,0.3,1.6,0.9v41.8c0,0.8,0,1.4-0.8,2L408,272.2c-0.5,0.3-0.5,1.1,0.3,1.1h47.2
	c1,0,1.6,0.3,1.6,0.9v41.6c0,0.6-0.5,0.9-1.6,0.9h-51.6C402.8,316.8,402.3,316.5,402.3,315.9L402.3,315.9z"/>
</svg>
