<?xml version="1.0" encoding="UTF-8"?>
<svg id="Layer_1" data-name="Layer 1" xmlns="http://www.w3.org/2000/svg" viewBox="0 0 457.04 316.83">
  <defs>
    <style>
      .cls-1 {
        fill: #fff;
      }
    </style>
  </defs>
  <path class="cls-1" d="m0,315.89V.94c0-.47.78-.94,1.56-.94h.78c.78,0,1.56.47,1.56.94v254.16c0,.31.52.47.78,0L26.06,13.19c.26-.94,2.61-.94,2.87,0l23.71,281.65c0,.47.78.47.78,0V.94c0-.47.78-.94,1.56-.94h31.79c.78,0,1.56.47,1.56.94v314.95c0,.47-.78.94-1.56.94h-30.23c-.78,0-1.82-.47-1.82-.94l-10.94-41.62c0-.47-.52-.47-.78,0l-17.98,41.62c-.26.47-1.04.94-1.82.94H1.56c-.78,0-1.56-.47-1.56-.94Z"/>
  <path class="cls-1" d="m96.93,315.89L120.38.79c.52-.63,1.04-.79,1.82-.79h26.58c1.04,0,1.82.31,1.82.94l23.45,314.95c0,.63-.52.94-1.56.94h-.78c-1.04,0-1.82-.31-1.82-.94l-3.65-19.95c0-.63-1.04-.79-1.82-.79h-26.32c-.78,0-1.56.16-1.56.63l-3.65,20.42c0,.47-.78.63-1.56.63h-33.09c-.78,0-1.56-.47-1.3-.94Zm60.98-55.29c.78,0,1.3-.47,1.3-.94l-7.3-227.61c-.26-1.26-1.82-1.26-2.08,0l-7.04,227.61c0,.63.78.94,1.56.94h13.55Z"/>
  <path class="cls-1" d="m182.66,315.89V.94c0-.63.52-.94,1.56-.94h.78c1.3,0,1.82.16,2.87.63l43.26,18.85c.78.31,1.3.16,1.3-.31V.94c0-.63.52-.94,1.56-.94h.78c1.04,0,1.56.31,1.56.94v314.95c0,.63-.52.94-2.09.94-1.3,0-1.82-.31-1.82-.94v-45.24c0-.63-.26-1.1-1.3-1.57l-43.52-18.85c-.78-.31-1.04-.16-1.04.47v65.19c0,.63-.52.94-1.56.94h-.78c-1.04,0-1.56-.31-1.56-.94Z"/>
  <path class="cls-1" d="m251.97,315.89V.94c0-.63.52-.94,1.56-.94h.78c1.04,0,1.56.31,1.56.94v248.19c0,.94,1.04.94,1.3,0L274.64,1.1c.26-.94.78-1.1,1.82-1.1h35.7c.78,0,1.56.47,1.3.94l-16.16,243.79c-.52,1.57-.52,3.14,0,4.71l19.02,66.29c.26.63-.52,1.1-1.3,1.1h-1.04c-1.04,0-1.56-.31-1.82-.94l-16.68-58.59c-.26-.79-1.04-.79-1.3,0l-15.11,58.43c-.26.94-.78,1.1-1.82,1.1h-23.71c-1.04,0-1.56-.31-1.56-.94Z"/>
  <path class="cls-1" d="m318.16,315.89L341.61.79c.52-.63,1.04-.79,1.82-.79h26.58c1.04,0,1.82.31,1.82.94l23.45,314.95c0,.63-.52.94-1.56.94h-.78c-1.04,0-1.82-.31-1.82-.94l-3.65-19.95c0-.63-1.04-.79-1.82-.79h-26.32c-.78,0-1.56.16-1.56.63l-3.65,20.42c0,.47-.78.63-1.56.63h-33.09c-.78,0-1.56-.47-1.3-.94Zm60.98-55.29c.78,0,1.3-.47,1.3-.94l-7.3-227.61c-.26-1.26-1.82-1.26-2.09,0l-7.04,227.61c0,.63.78.94,1.56.94h13.55Z"/>
  <path class="cls-1" d="m402.32,315.89v-41.62c0-.79,0-1.41.78-2.04l48.21-227.46c.52-.31.26-1.1-.78-1.1h-45.86c-1.04,0-1.56-.31-1.56-.94V.94c0-.63.52-.94,1.56-.94h50.81c1.04,0,1.56.31,1.56.94v41.78c0,.79,0,1.41-.78,2.04l-48.21,227.46c-.52.31-.52,1.1.26,1.1h47.17c1.04,0,1.56.31,1.56.94v41.62c0,.63-.52.94-1.56.94h-51.6c-1.04,0-1.56-.31-1.56-.94Z"/>
</svg>